<svg width="73" height="40" viewBox="0 0 73 40" fill="none" xmlns="http://www.w3.org/2000/svg">
<rect width="73" height="40" fill="#272438"/>
<path d="M14.0156 8.25V31H9.34375V8.25H14.0156ZM20.5469 8.25H24.5156L30.3594 24.9531L36.2031 8.25H40.1719L31.9531 31H28.7656L20.5469 8.25ZM18.4062 8.25H22.3594L23.0781 24.5312V31H18.4062V8.25ZM38.3594 8.25H42.3281V31H37.6406V24.5312L38.3594 8.25ZM59.625 23.4531H64.2969C64.2031 24.9844 63.7812 26.3438 63.0312 27.5312C62.2917 28.7188 61.2552 29.6458 59.9219 30.3125C58.599 30.9792 57.0052 31.3125 55.1406 31.3125C53.6823 31.3125 52.375 31.0625 51.2188 30.5625C50.0625 30.0521 49.0729 29.3229 48.25 28.375C47.4375 27.4271 46.8177 26.2812 46.3906 24.9375C45.9635 23.5938 45.75 22.0885 45.75 20.4219V18.8438C45.75 17.1771 45.9688 15.6719 46.4062 14.3281C46.8542 12.974 47.4896 11.8229 48.3125 10.875C49.1458 9.92708 50.1406 9.19792 51.2969 8.6875C52.4531 8.17708 53.7448 7.92188 55.1719 7.92188C57.0677 7.92188 58.6667 8.26562 59.9688 8.95312C61.2812 9.64062 62.2969 10.5885 63.0156 11.7969C63.7448 13.0052 64.1823 14.3802 64.3281 15.9219H59.6406C59.5885 15.0052 59.4062 14.2292 59.0938 13.5938C58.7812 12.9479 58.3073 12.4635 57.6719 12.1406C57.0469 11.8073 56.2135 11.6406 55.1719 11.6406C54.3906 11.6406 53.7083 11.7865 53.125 12.0781C52.5417 12.3698 52.0521 12.8125 51.6562 13.4062C51.2604 14 50.9635 14.75 50.7656 15.6562C50.5781 16.5521 50.4844 17.6042 50.4844 18.8125V20.4219C50.4844 21.599 50.5729 22.6354 50.75 23.5312C50.9271 24.4167 51.1979 25.1667 51.5625 25.7812C51.9375 26.3854 52.4167 26.8438 53 27.1562C53.5938 27.4583 54.3073 27.6094 55.1406 27.6094C56.1198 27.6094 56.9271 27.4531 57.5625 27.1406C58.1979 26.8281 58.6823 26.3646 59.0156 25.75C59.3594 25.1354 59.5625 24.3698 59.625 23.4531Z" fill="#B6C9CF"/>
</svg>
